<svg xmlns="http://www.w3.org/2000/svg" width="227.972" height="46.84" viewBox="0 0 227.972 46.84">
  <g id="Group_6336" data-name="Group 6336" transform="translate(-16.882 -6.942)">
    <g id="Logo" transform="translate(77.342 18.392)">
      <g id="Group_1337" data-name="Group 1337" transform="translate(0 0)">
        <path id="Path_212" data-name="Path 212" d="M286.066,341.258h0a6.235,6.235,0,0,0,4.623,2.4,4.592,4.592,0,0,0,1.006-.107,2.478,2.478,0,0,0,.805-.336,1.785,1.785,0,0,0,.534-.6,1.882,1.882,0,0,0,.195-.879,1.311,1.311,0,0,0-.157-.67,1.811,1.811,0,0,0-.422-.513,3.064,3.064,0,0,0-.584-.383,4.154,4.154,0,0,0-.644-.286c-.4-.157-.8-.314-1.195-.449s-.785-.278-1.188-.446c-.224-.077-.5-.177-.812-.3a9.029,9.029,0,0,1-1.006-.452,7.97,7.97,0,0,1-1.006-.628,4.742,4.742,0,0,1-.9-.879,4.4,4.4,0,0,1-.651-1.165,4.129,4.129,0,0,1-.248-1.5,3.313,3.313,0,0,1,.51-1.841,4.359,4.359,0,0,1,1.362-1.342,6.554,6.554,0,0,1,1.923-.8,8.948,8.948,0,0,1,2.213-.268,11.859,11.859,0,0,1,3.3.422,7.552,7.552,0,0,1,2.714,1.413l-1.727,2.658c-.3-.3-.593-.567-.885-.808a5.566,5.566,0,0,0-.912-.614,4.645,4.645,0,0,0-1.053-.389,6.052,6.052,0,0,0-1.3-.127,3.473,3.473,0,0,0-1.053.144,2.223,2.223,0,0,0-.725.392,1.548,1.548,0,0,0-.413.57,1.715,1.715,0,0,0-.133.67,1.2,1.2,0,0,0,.188.67,1.939,1.939,0,0,0,.493.5,3.274,3.274,0,0,0,.67.366c.254.1.51.2.772.282.41.157.826.3,1.239.436s.826.286,1.234.43c.2.08.454.168.749.278a7,7,0,0,1,.9.41,5.884,5.884,0,0,1,.929.611,4.185,4.185,0,0,1,.829.856,4.361,4.361,0,0,1,.587,1.174,4.608,4.608,0,0,1,.231,1.543,3.488,3.488,0,0,1-.543,1.935,4.615,4.615,0,0,1-1.422,1.4,6.931,6.931,0,0,1-2.012.859,9.17,9.17,0,0,1-2.311.289,16.96,16.96,0,0,1-1.986-.115,9.259,9.259,0,0,1-1.775-.4,7.288,7.288,0,0,1-1.6-.752,7.174,7.174,0,0,1-1.433-1.195ZM271.5,330.074h0v10.819a2.86,2.86,0,0,0,.185,1.083,2.011,2.011,0,0,0,.49.738,1.8,1.8,0,0,0,.725.416,2.878,2.878,0,0,0,.9.127,9.721,9.721,0,0,0,2.237-.268,7,7,0,0,0,2.089-.838V330.074h3.818v13.04a9.215,9.215,0,0,0,.091,1.091c.053.471.144,1.027.259,1.661h-3.61c-.02-.06-.053-.168-.094-.336s-.091-.336-.138-.52-.083-.359-.124-.523a3.272,3.272,0,0,1-.071-.369,7.293,7.293,0,0,1-1.118.812,8.376,8.376,0,0,1-1.3.644,8.107,8.107,0,0,1-1.369.416,6.151,6.151,0,0,1-1.315.147,6.912,6.912,0,0,1-2.62-.422,4.226,4.226,0,0,1-1.678-1.177,4.362,4.362,0,0,1-.9-1.752,8.6,8.6,0,0,1-.259-2.166V330.075Zm-17.336,13.291h0a9.06,9.06,0,0,0,1.428.36,10.191,10.191,0,0,0,1.676.141,3.38,3.38,0,0,0,1.644-.413,3.78,3.78,0,0,0,1.281-1.191,6.038,6.038,0,0,0,.846-1.9,9.891,9.891,0,0,0,.3-2.537,9.385,9.385,0,0,0-.221-2.1,4.568,4.568,0,0,0-.688-1.617,3.184,3.184,0,0,0-1.188-1.036,3.853,3.853,0,0,0-1.738-.366,7.536,7.536,0,0,0-.942.064c-.314.047-.617.107-.912.18a6.777,6.777,0,0,0-.826.254,3.884,3.884,0,0,0-.67.336Zm-3.8-20.407h3.8v8.305a6.714,6.714,0,0,1,1.973-1.03,7.666,7.666,0,0,1,2.532-.4,6.622,6.622,0,0,1,3.066.67,5.9,5.9,0,0,1,2.066,1.774,7.411,7.411,0,0,1,1.177,2.56,12.152,12.152,0,0,1,.372,3.019,9.248,9.248,0,0,1-.67,3.691,7.668,7.668,0,0,1-1.774,2.593,7.193,7.193,0,0,1-2.479,1.529,8.386,8.386,0,0,1-2.8.5q-1.1,0-2.012-.024c-.614-.017-1.207-.038-1.774-.064s-1.138-.071-1.7-.127-1.147-.124-1.761-.207Zm-10.244,20.678h0a2.684,2.684,0,0,0,1.678-.531,3.99,3.99,0,0,0,1.151-1.389,7.046,7.046,0,0,0,.67-1.945,10.7,10.7,0,0,0,.221-2.2,9.753,9.753,0,0,0-.195-1.968,4.848,4.848,0,0,0-.655-1.62,3.312,3.312,0,0,0-1.168-1.1,3.453,3.453,0,0,0-1.744-.413,3.14,3.14,0,0,0-1.626.422,3.579,3.579,0,0,0-1.177,1.165,5.735,5.735,0,0,0-.708,1.755,9.53,9.53,0,0,0-.03,4.16,6.374,6.374,0,0,0,.67,1.815,4.073,4.073,0,0,0,1.184,1.342,2.915,2.915,0,0,0,1.727.5Zm.127,2.629h0a9.091,9.091,0,0,1-3.411-.6,6.749,6.749,0,0,1-2.49-1.7,7.312,7.312,0,0,1-1.529-2.669,10.83,10.83,0,0,1-.527-3.469,9.773,9.773,0,0,1,.48-3.072,7.2,7.2,0,0,1,1.463-2.54,6.975,6.975,0,0,1,2.466-1.744,8.764,8.764,0,0,1,3.49-.641,8.492,8.492,0,0,1,3.453.64,6.531,6.531,0,0,1,2.384,1.764,7.2,7.2,0,0,1,1.381,2.629,11.5,11.5,0,0,1,.446,3.238,9.565,9.565,0,0,1-.52,3.169,7.808,7.808,0,0,1-1.507,2.6,7.211,7.211,0,0,1-2.4,1.752,7.608,7.608,0,0,1-3.18.644ZM225.1,322.957h3.8v19.094a1.712,1.712,0,0,0,.242,1.053.8.8,0,0,0,.67.314,2.2,2.2,0,0,0,.818-.133c.224-.083.487-.192.775-.3l.644,1.956a6.327,6.327,0,0,1-.8.471,7.243,7.243,0,0,1-.9.389,8.025,8.025,0,0,1-.983.272,5.114,5.114,0,0,1-1.006.1,5.563,5.563,0,0,1-1.213-.133,2.4,2.4,0,0,1-1.038-.507,2.569,2.569,0,0,1-.735-1.027,4.453,4.453,0,0,1-.272-1.7Zm-2.486,21.375c-.531.286-1.074.543-1.634.785a13.014,13.014,0,0,1-1.852.628,16.647,16.647,0,0,1-2.251.41,24.317,24.317,0,0,1-2.826.148,9.827,9.827,0,0,1-3.13-.471,8.645,8.645,0,0,1-4.4-3.254,11.094,11.094,0,0,1-1.322-2.455,14.593,14.593,0,0,1-.785-2.785,17.112,17.112,0,0,1-.254-2.956,15.426,15.426,0,0,1,.314-3.086,13.658,13.658,0,0,1,.9-2.844A11.441,11.441,0,0,1,206.872,326a9.555,9.555,0,0,1,2.056-1.923,9.374,9.374,0,0,1,2.6-1.256,10.145,10.145,0,0,1,3.113-.457c.554,0,1.063.017,1.523.047a11.168,11.168,0,0,1,1.281.157,6.93,6.93,0,0,1,1.133.3,7.964,7.964,0,0,1,1.083.471,9.534,9.534,0,0,1,1.13.688q.584.4,1.289.942l-2.121,2.921a14.723,14.723,0,0,0-1.413-1.157,6.631,6.631,0,0,0-1.289-.732,5.8,5.8,0,0,0-1.315-.383,9.522,9.522,0,0,0-1.513-.107,5.087,5.087,0,0,0-2.576.648,5.753,5.753,0,0,0-1.892,1.788,8.437,8.437,0,0,0-1.16,2.661,12.981,12.981,0,0,0-.4,3.284,17.232,17.232,0,0,0,.336,3.511,9.626,9.626,0,0,0,1.086,2.956,6,6,0,0,0,1.923,2.041,5.133,5.133,0,0,0,2.825.758,7.607,7.607,0,0,0,.973-.044c.345-.044.691-.071,1.044-.124s.7-.118,1.033-.191.647-.148.942-.224v-7.75h4.025Z" transform="translate(-204.163 -322.363)" fill="#036"/>
        <path id="Path_211" data-name="Path 211" d="M562.854,337.443h0l5.16-5.833h4.753l-7.181,7.045,7.648,8.742h-4.552l-5.821-6.827V347.4h-3.8V324.479h3.8Zm-20.685-3.127h0c0-.314,0-.714-.027-1.21a9.283,9.283,0,0,0-.157-1.5h3.582a2.472,2.472,0,0,1,.086.286c.027.121.057.254.094.393s.064.292.091.439.044.292.064.419a6.226,6.226,0,0,1,.849-.644,7.22,7.22,0,0,1,2.366-.986,6.5,6.5,0,0,1,1.439-.157,6.773,6.773,0,0,1,2.284.38,5.347,5.347,0,0,1,1.841,1.1,5.16,5.16,0,0,1,1.239,1.758,5.855,5.855,0,0,1,.454,2.355V347.4h-3.813v-9.732a5.922,5.922,0,0,0-.192-1.607,2.651,2.651,0,0,0-.564-1.063,2.116,2.116,0,0,0-.912-.584,3.917,3.917,0,0,0-1.245-.185,5.94,5.94,0,0,0-.879.071,6.558,6.558,0,0,0-.956.195,9.492,9.492,0,0,0-.962.314,6.159,6.159,0,0,0-.886.393v12.208h-3.8Zm-7.827,4.841h0a12.96,12.96,0,0,0-2.785.363,5.007,5.007,0,0,0-1.727.768,2.535,2.535,0,0,0-.889,1.11,3.835,3.835,0,0,0-.245,1.4,3.263,3.263,0,0,0,.144,1.071,1.677,1.677,0,0,0,.416.688,1.527,1.527,0,0,0,.67.369,2.945,2.945,0,0,0,.832.11c.275,0,.554-.017.838-.041a5.494,5.494,0,0,0,.889-.171,5.7,5.7,0,0,0,.915-.336,5.95,5.95,0,0,0,.942-.554Zm-9.246-5.4h0A8.909,8.909,0,0,1,528.053,332a10.251,10.251,0,0,1,3.6-.637,10.064,10.064,0,0,1,2.443.3,6.659,6.659,0,0,1,2.077.885,4.552,4.552,0,0,1,1.446,1.543,4.429,4.429,0,0,1,.54,2.231v7.045a5.1,5.1,0,0,0,.06.859,1.289,1.289,0,0,0,.195.537.774.774,0,0,0,.359.283,1.607,1.607,0,0,0,.543.077,3.829,3.829,0,0,0,.439-.044q.336-.047.614-.1l.41,1.678c-.234.144-.471.278-.717.41a5.13,5.13,0,0,1-.785.336,6.093,6.093,0,0,1-.9.231,6.63,6.63,0,0,1-1.08.091,3.2,3.2,0,0,1-1.832-.51,2.236,2.236,0,0,1-.942-1.439,6.84,6.84,0,0,1-1.271.942,7.091,7.091,0,0,1-1.322.6,7.371,7.371,0,0,1-1.342.314,10.77,10.77,0,0,1-1.292.091,6.337,6.337,0,0,1-1.915-.283,3.883,3.883,0,0,1-1.449-.829,3.623,3.623,0,0,1-.923-1.342,5.158,5.158,0,0,1-.336-1.9,5.583,5.583,0,0,1,.372-2.124,4.74,4.74,0,0,1,1.03-1.57,5.6,5.6,0,0,1,1.57-1.086,9.244,9.244,0,0,1,1.982-.67,16.1,16.1,0,0,1,2.271-.352q1.2-.1,2.439-.1v-.57a3.67,3.67,0,0,0-.215-1.342,2.459,2.459,0,0,0-.608-.909,2.589,2.589,0,0,0-.929-.516,4.052,4.052,0,0,0-1.2-.168,5.248,5.248,0,0,0-1.053.1,4.044,4.044,0,0,0-1.006.336,6.337,6.337,0,0,0-1.044.643,13.126,13.126,0,0,0-1.2,1.033Zm-13.586-6.317h0v6.8h2.133a8.456,8.456,0,0,0,1.965-.2,4.36,4.36,0,0,0,1.51-.628,2.96,2.96,0,0,0,.956-1.083,3.353,3.353,0,0,0,.336-1.54,4.052,4.052,0,0,0-.248-1.479,2.26,2.26,0,0,0-.838-1.036,4.238,4.238,0,0,0-1.557-.614,11.99,11.99,0,0,0-2.4-.2Zm0,9.751h0v7.258h3.083a6.39,6.39,0,0,0,2.086-.3,4.432,4.432,0,0,0,1.463-.815,3.2,3.2,0,0,0,.852-1.127,3.058,3.058,0,0,0,.278-1.256A3.838,3.838,0,0,0,519,339.5a3.088,3.088,0,0,0-.862-1.191,4.364,4.364,0,0,0-1.5-.805,7.157,7.157,0,0,0-2.2-.3Zm3.3-12.715a11.71,11.71,0,0,1,3.127.389,7.149,7.149,0,0,1,2.355,1.118,5.1,5.1,0,0,1,1.5,1.8,5.492,5.492,0,0,1,.523,2.443,4.241,4.241,0,0,1-.336,1.678,5.6,5.6,0,0,1-.926,1.5,6.153,6.153,0,0,1-1.375,1.181,5.972,5.972,0,0,1-1.676.741,7.847,7.847,0,0,1,1.838.584,6.213,6.213,0,0,1,1.727,1.157,5.806,5.806,0,0,1,1.289,1.774,5.5,5.5,0,0,1,.5,2.432,5.39,5.39,0,0,1-.51,2.275,5.71,5.71,0,0,1-1.523,1.956,7.5,7.5,0,0,1-2.5,1.369,10.454,10.454,0,0,1-3.454.516H507.48V324.471Z" transform="translate(-405.721 -323.781)" fill="#036"/>
      </g>
    </g>
    <g id="Group_4644" data-name="Group 4644" transform="translate(16.882 6.942)">
      <path id="Path_60324" data-name="Path 60324" d="M39.966,281.66A23.42,23.42,0,1,1,16.51,305.08a23.42,23.42,0,0,1,23.456-23.42" transform="translate(-16.51 -281.66)" fill="#eb2232"/>
      <path id="Path_60325" data-name="Path 60325" d="M60.839,338.72h0v-4.411l5.6.036c2.695.018,4.007,2.172,4.007,4.423,0,6.225-9.588,7.559-9.6-.049m0-11.7h0c10.323-5.417,11.235,6.483,5,5.915H60.821Zm9,6.459c7.4-2.834,1.215-13.868-10.9-7.042a9.442,9.442,0,0,0-4.3-1.978c-2.992-.608-7.006-.079-9.257,2.023l1.088,1.066a8.118,8.118,0,0,1,8.6-1.267,3.487,3.487,0,0,1,1.9,2.336l.055,10.138h0c-.444,7.042-9.515,6.5-9.512,0v-4.448h7.133v-1.343H43.75v4.378c.027,8.321,10.15,9.722,15.163,5.672,1.44,1.315,4.274,2.206,7.109,2.187,8.986-.061,10.837-9.752,3.794-11.724Z" transform="translate(-35.326 -311.204)" fill="#fff"/>
    </g>
  </g>
</svg>
